<svg width="14" height="14" viewBox="0 0 14 14" fill="none" xmlns="http://www.w3.org/2000/svg">
<path d="M9.34375 0.75H4.65625C2.49922 0.75 0.75 2.49922 0.75 4.65625V9.34375C0.75 11.5008 2.49922 13.25 4.65625 13.25H9.34375C11.5008 13.25 13.25 11.5008 13.25 9.34375V4.65625C13.25 2.49922 11.5008 0.75 9.34375 0.75ZM12.0781 9.34375C12.0781 10.8516 10.8516 12.0781 9.34375 12.0781H4.65625C3.14844 12.0781 1.92188 10.8516 1.92188 9.34375V4.65625C1.92188 3.14844 3.14844 1.92188 4.65625 1.92188H9.34375C10.8516 1.92188 12.0781 3.14844 12.0781 4.65625V9.34375Z" fill="white"/>
<path d="M7 3.875C5.27422 3.875 3.875 5.27422 3.875 7C3.875 8.72578 5.27422 10.125 7 10.125C8.72578 10.125 10.125 8.72578 10.125 7C10.125 5.27422 8.72578 3.875 7 3.875ZM7 8.95312C5.92344 8.95312 5.04688 8.07656 5.04688 7C5.04688 5.92266 5.92344 5.04688 7 5.04688C8.07656 5.04688 8.95312 5.92266 8.95312 7C8.95312 8.07656 8.07656 8.95312 7 8.95312Z" fill="white"/>
<path d="M10.3595 4.05718C10.5895 4.05718 10.7759 3.87075 10.7759 3.64077C10.7759 3.4108 10.5895 3.22437 10.3595 3.22437C10.1295 3.22437 9.94312 3.4108 9.94312 3.64077C9.94312 3.87075 10.1295 4.05718 10.3595 4.05718Z" fill="white"/>
</svg>
