<svg width="40" height="40" viewBox="0 0 40 40" fill="none" xmlns="http://www.w3.org/2000/svg">
<path d="M28.3337 25.4083V36.8616C28.3337 37.0091 28.2946 37.1539 28.2204 37.2813C28.1462 37.4087 28.0395 37.5141 27.9112 37.5868C27.7829 37.6595 27.6376 37.6969 27.4902 37.6951C27.3428 37.6933 27.1985 37.6524 27.072 37.5766L20.0003 33.3333L12.9287 37.5766C12.8021 37.6525 12.6576 37.6934 12.51 37.6951C12.3624 37.6968 12.2171 37.6593 12.0887 37.5864C11.9604 37.5135 11.8537 37.4078 11.7796 37.2802C11.7055 37.1526 11.6667 37.0075 11.667 36.86V25.41C9.51057 23.6834 7.94365 21.3298 7.18276 18.6742C6.42187 16.0186 6.50459 13.1923 7.41948 10.5858C8.33437 7.97923 10.0363 5.72121 12.29 4.12377C14.5437 2.52632 17.2379 1.6683 20.0003 1.6683C22.7628 1.6683 25.457 2.52632 27.7107 4.12377C29.9644 5.72121 31.6663 7.97923 32.5812 10.5858C33.4961 13.1923 33.5788 16.0186 32.8179 18.6742C32.057 21.3298 30.4901 23.6834 28.3337 25.41V25.4083ZM15.0003 27.3633V32.4466L20.0003 29.4466L25.0003 32.4466V27.3633C23.4117 28.0058 21.7139 28.3352 20.0003 28.3333C18.2867 28.3352 16.5889 28.0058 15.0003 27.3633ZM20.0003 25C22.6525 25 25.196 23.9464 27.0714 22.071C28.9468 20.1957 30.0003 17.6521 30.0003 15C30.0003 12.3478 28.9468 9.80426 27.0714 7.9289C25.196 6.05354 22.6525 4.99997 20.0003 4.99997C17.3482 4.99997 14.8046 6.05354 12.9293 7.9289C11.0539 9.80426 10.0003 12.3478 10.0003 15C10.0003 17.6521 11.0539 20.1957 12.9293 22.071C14.8046 23.9464 17.3482 25 20.0003 25Z" fill="#F0C054"/>
</svg>
