<svg width="40" height="40" viewBox="0 0 40 40" fill="none" xmlns="http://www.w3.org/2000/svg">
<path d="M15.7434 13.3867L20.0001 17.6433L31.2134 6.43C31.8385 5.8051 32.6862 5.45404 33.5701 5.45404C34.4539 5.45404 35.3016 5.8051 35.9267 6.43L15.7434 26.6133C16.5675 28.0111 16.8536 29.6615 16.548 31.2551C16.2424 32.8487 15.366 34.2761 14.0832 35.2698C12.8005 36.2635 11.1993 36.7552 9.57987 36.6528C7.96046 36.5504 6.434 35.8608 5.28661 34.7134C4.13923 33.5661 3.4497 32.0396 3.34729 30.4202C3.24487 28.8008 3.73659 27.1996 4.73028 25.9168C5.72396 24.634 7.15139 23.7577 8.745 23.4521C10.3386 23.1464 11.989 23.4325 13.3867 24.2567L17.6434 20L13.3867 15.7433C11.989 16.5675 10.3386 16.8536 8.745 16.5479C7.15139 16.2423 5.72396 15.366 4.73028 14.0832C3.73659 12.8004 3.24487 11.1992 3.34729 9.57981C3.4497 7.9604 4.13923 6.43394 5.28661 5.28655C6.434 4.13917 7.96046 3.44964 9.57987 3.34722C11.1993 3.24481 12.8005 3.73653 14.0832 4.73021C15.366 5.7239 16.2424 7.15133 16.548 8.74494C16.8536 10.3385 16.5675 11.9889 15.7434 13.3867ZM24.7101 22.3533L35.9267 33.57C35.3016 34.1949 34.4539 34.546 33.5701 34.546C32.6862 34.546 31.8385 34.1949 31.2134 33.57L22.3517 24.71L24.7101 22.3517V22.3533ZM12.3567 27.6433C12.0492 27.325 11.6814 27.071 11.2747 26.8963C10.8681 26.7216 10.4307 26.6297 9.98806 26.6258C9.54547 26.622 9.10653 26.7063 8.69688 26.8739C8.28722 27.0415 7.91505 27.289 7.60208 27.602C7.2891 27.915 7.04159 28.2872 6.87399 28.6968C6.70638 29.1065 6.62205 29.5454 6.62589 29.988C6.62974 30.4306 6.72169 30.868 6.89639 31.2747C7.07108 31.6814 7.32503 32.0492 7.64339 32.3567C8.27207 32.9639 9.11407 33.2998 9.98806 33.2922C10.8621 33.2847 11.6981 32.9341 12.3161 32.3161C12.9341 31.698 13.2847 30.862 13.2923 29.988C13.2999 29.114 12.9639 28.272 12.3567 27.6433ZM12.3567 12.3567C12.6751 12.0492 12.929 11.6814 13.1037 11.2747C13.2784 10.868 13.3704 10.4306 13.3742 9.988C13.3781 9.54541 13.2937 9.10647 13.1261 8.69682C12.9585 8.28716 12.711 7.91499 12.398 7.60202C12.0851 7.28904 11.7129 7.04153 11.3032 6.87393C10.8936 6.70632 10.4547 6.62198 10.0121 6.62583C9.56946 6.62968 9.13206 6.72163 8.72538 6.89633C8.3187 7.07102 7.95088 7.32496 7.64339 7.64333C7.0362 8.27201 6.70022 9.11401 6.70781 9.988C6.71541 10.862 7.06597 11.698 7.684 12.3161C8.30202 12.9341 9.13807 13.2847 10.0121 13.2922C10.886 13.2998 11.7281 12.9639 12.3567 12.3567Z" fill="#F0C054"/>
</svg>
