<svg width="40" height="40" viewBox="0 0 40 40" fill="none" xmlns="http://www.w3.org/2000/svg">
<path d="M39.3548 20.5027L17.4318 9.73353C17.2735 9.65572 17.0995 9.61533 16.9231 9.61533H16.1539C14.2452 9.61533 12.6923 11.1681 12.6923 13.0769C12.6923 13.7131 12.1748 14.2307 11.5385 14.2307H8.46156C7.82531 14.2307 7.30773 13.7131 7.30773 13.0769C7.30773 11.1682 5.75492 9.61533 3.84617 9.61533H3.46156C1.55281 9.61533 0 11.1681 0 13.0769V24.6153V29.2307C0 29.868 0.516641 30.3845 1.15383 30.3845H38.8462C39.4834 30.3845 40 29.8679 40 29.2307V24.6153V21.5384C40 21.0984 39.7498 20.6968 39.3548 20.5027ZM37.6923 28.0769H2.30766V25.7692H37.6923V28.0769H37.6923ZM37.6923 23.4615H2.30766V13.0769C2.30766 12.4406 2.82523 11.9231 3.46148 11.9231H3.84609C4.48234 11.9231 4.99992 12.4406 4.99992 13.0769C4.99992 14.9856 6.55273 16.5385 8.46148 16.5385H11.5384C13.4471 16.5385 15 14.9856 15 13.0769C15 12.4406 15.5176 11.9231 16.1538 11.9231H16.655L21.5425 14.3239L19.3077 15.9999C18.7978 16.3824 18.6945 17.1056 19.0769 17.6153C19.3036 17.9177 19.65 18.077 20.0009 18.077C20.2418 18.077 20.4847 18.0017 20.6923 17.8461L23.8664 15.4655L26.8102 16.9115L23.923 19.0769C23.4131 19.4592 23.3098 20.1825 23.6922 20.6923C23.9189 20.9946 24.2653 21.1539 24.6162 21.1539C24.8571 21.1539 25.1 21.0787 25.3076 20.9231L29.1341 18.0532L37.6922 22.2572V23.4615H37.6923Z" fill="#F0C054"/>
</svg>
