<svg width="24" height="24" viewBox="0 0 24 24" fill="none" xmlns="http://www.w3.org/2000/svg">
<circle cx="12" cy="12" r="12" fill="#8E24AA"/>
<path d="M11.6848 6.75C11.3678 6.75 11.3678 7.24402 11.6848 7.24814C14.1442 7.26707 16.1696 8.98132 16.1919 12.1258C16.1919 12.4576 16.6777 12.4535 16.6735 12.1216H16.6727C16.6464 8.73349 14.4348 6.76894 11.6848 6.75Z" fill="white"/>
<path d="M14.9198 11.6044C14.9124 11.9321 15.3974 11.9478 15.4015 11.616C15.4419 9.74775 14.29 8.20888 12.1253 8.04667C11.8083 8.02362 11.7754 8.52176 12.0916 8.54481C13.9689 8.68725 14.9577 9.96841 14.9198 11.6044Z" fill="white"/>
<path d="M14.4005 13.7298C13.9937 13.4943 13.5796 13.6408 13.4083 13.8722L13.0502 14.3358C12.8682 14.5713 12.5281 14.54 12.5281 14.54C10.0465 13.8837 9.38289 11.2868 9.38289 11.2868C9.38289 11.2868 9.35243 10.9353 9.57968 10.7467L10.0276 10.3762C10.2515 10.1984 10.3932 9.77021 10.1651 9.34947C9.5558 8.24863 9.14659 7.86905 8.93827 7.57758C8.71926 7.3034 8.38991 7.24165 8.04739 7.42691H8.03998C7.32777 7.84353 6.54805 8.62326 6.79753 9.42604C7.22321 10.2725 8.0054 12.9706 10.4986 15.0093C11.6702 15.9734 13.5244 16.9615 14.3116 17.1896L14.319 17.2011C15.0946 17.4596 15.8488 16.6494 16.2514 15.9158V15.91C16.4301 15.5552 16.3708 15.2192 16.1098 14.9994C15.6471 14.5482 14.9488 14.0501 14.4005 13.7298Z" fill="white"/>
<path d="M12.465 9.88489C13.2563 9.931 13.64 10.3443 13.6812 11.1932C13.696 11.525 14.1776 11.502 14.1628 11.1702C14.1101 10.0619 13.5321 9.44439 12.4914 9.38676C12.1744 9.36782 12.1447 9.86596 12.465 9.88489Z" fill="white"/>
</svg>
