<svg width="17" height="10" viewBox="0 0 17 10" fill="none" xmlns="http://www.w3.org/2000/svg">
<path d="M16.1299 8.52721C16.1113 8.48719 16.094 8.45399 16.0779 8.42739C15.8119 7.94817 15.3034 7.35996 14.5528 6.66259L14.537 6.64662L14.529 6.63879L14.521 6.63076H14.5129C14.1723 6.30603 13.9566 6.08769 13.8662 5.9759C13.701 5.76296 13.6639 5.54741 13.7543 5.32901C13.8181 5.164 14.0578 4.81553 14.4729 4.28311C14.6913 4.00095 14.8642 3.7748 14.9919 3.60442C15.9129 2.38001 16.3122 1.59759 16.1897 1.25686L16.1421 1.17724C16.1101 1.1293 16.0276 1.08545 15.8947 1.04545C15.7615 1.00554 15.5912 0.998943 15.3835 1.02554L13.0839 1.04143C13.0467 1.02823 12.9935 1.02946 12.9242 1.04545C12.8549 1.06145 12.8203 1.06948 12.8203 1.06948L12.7803 1.08947L12.7485 1.1135C12.7219 1.12938 12.6926 1.15732 12.6607 1.19726C12.6289 1.23706 12.6023 1.28376 12.581 1.33699C12.3306 1.98111 12.046 2.57997 11.7265 3.13356C11.5295 3.46366 11.3486 3.74974 11.1834 3.99197C11.0185 4.23411 10.88 4.41252 10.7683 4.52688C10.6565 4.64135 10.5555 4.73305 10.4648 4.80233C10.3743 4.87163 10.3052 4.90091 10.2573 4.8902C10.2094 4.87949 10.1642 4.86886 10.1215 4.85824C10.047 4.8103 9.98707 4.74511 9.9419 4.6626C9.89654 4.5801 9.866 4.47626 9.85003 4.35116C9.83414 4.22597 9.82474 4.1183 9.82206 4.02777C9.81957 3.93735 9.82072 3.80945 9.82611 3.64445C9.83165 3.47935 9.83414 3.36765 9.83414 3.30909C9.83414 3.10677 9.83809 2.8872 9.846 2.65031C9.85405 2.41343 9.86057 2.22574 9.86602 2.08747C9.87145 1.94906 9.87397 1.80262 9.87397 1.64824C9.87397 1.49386 9.86457 1.37278 9.846 1.28491C9.82765 1.19715 9.79949 1.11196 9.76238 1.02937C9.72504 0.946868 9.67039 0.883046 9.59868 0.837738C9.52683 0.792487 9.43751 0.756577 9.3312 0.729896C9.04904 0.666046 8.68974 0.631506 8.25314 0.626136C7.26306 0.615508 6.62688 0.679442 6.34475 0.817853C6.23296 0.876333 6.1318 0.956236 6.04136 1.05731C5.94551 1.17447 5.93214 1.2384 6.00133 1.24892C6.32078 1.29677 6.54692 1.41124 6.68002 1.59222L6.72799 1.68812C6.76529 1.75731 6.80255 1.87981 6.83983 2.05544C6.87705 2.23108 6.90108 2.42537 6.91165 2.6382C6.93822 3.02687 6.93822 3.35957 6.91165 3.63634C6.88499 3.91321 6.85982 4.12876 6.8358 4.28314C6.81178 4.43752 6.77587 4.56262 6.72799 4.65841C6.68002 4.75423 6.64811 4.81279 6.63211 4.83404C6.61614 4.8553 6.60283 4.8687 6.59226 4.87395C6.52307 4.90047 6.45111 4.91398 6.37663 4.91398C6.30204 4.91398 6.21159 4.87667 6.10515 4.80211C5.99873 4.72754 5.88829 4.62513 5.77382 4.49469C5.65935 4.36422 5.53025 4.1819 5.38647 3.9477C5.2428 3.7135 5.09373 3.4367 4.93935 3.11731L4.81162 2.88569C4.73178 2.73668 4.6227 2.5197 4.48429 2.23497C4.3458 1.95012 4.22338 1.67458 4.11697 1.40842C4.07443 1.29663 4.01052 1.21152 3.92536 1.15296L3.8854 1.12894C3.85883 1.10768 3.81618 1.08511 3.75767 1.06106C3.69908 1.03703 3.63794 1.01981 3.574 1.00921L1.38613 1.02509C1.16256 1.02509 1.01087 1.07574 0.930991 1.1769L0.899024 1.22475C0.883055 1.25141 0.875 1.29397 0.875 1.35256C0.875 1.41113 0.890969 1.483 0.922936 1.56811C1.24233 2.31876 1.58965 3.0427 1.96492 3.74004C2.34019 4.43738 2.66629 4.99911 2.94303 5.42472C3.21982 5.85064 3.50196 6.25261 3.78944 6.63045C4.07692 7.00843 4.26721 7.25066 4.36031 7.35708C4.45353 7.46369 4.52675 7.5434 4.57997 7.59662L4.77963 7.78822C4.90738 7.91601 5.09499 8.06905 5.34253 8.24734C5.59013 8.42574 5.86424 8.60138 6.165 8.77453C6.46582 8.94739 6.81578 9.08846 7.21507 9.19756C7.6143 9.30678 8.00288 9.3506 8.38087 9.32946H9.29915C9.48539 9.31338 9.62648 9.25481 9.72238 9.15374L9.75415 9.11372C9.77552 9.08195 9.79552 9.03258 9.81398 8.96616C9.83266 8.89963 9.84194 8.82632 9.84194 8.74659C9.83649 8.51773 9.85391 8.31147 9.89374 8.12783C9.93354 7.94426 9.9789 7.80584 10.0296 7.71263C10.0803 7.6195 10.1376 7.54091 10.2012 7.4772C10.2651 7.41335 10.3105 7.37467 10.3372 7.36136C10.3637 7.34796 10.3849 7.33887 10.4009 7.33342C10.5286 7.29085 10.679 7.33207 10.8522 7.45728C11.0252 7.58238 11.1875 7.73685 11.3393 7.92043C11.491 8.10417 11.6733 8.31032 11.8862 8.53918C12.0992 8.76812 12.2855 8.9383 12.4451 9.05026L12.6048 9.14608C12.7114 9.21001 12.8498 9.26857 13.0202 9.3218C13.1902 9.37499 13.3393 9.3883 13.4672 9.3617L15.5113 9.32982C15.7134 9.32982 15.8708 9.29635 15.9824 9.22992C16.0942 9.16339 16.1606 9.09009 16.182 9.01035C16.2034 8.93053 16.2045 8.83997 16.1861 8.73873C16.1671 8.63774 16.1485 8.56712 16.1299 8.52721Z" fill="white"/>
</svg>
