<svg width="24" height="24" viewBox="0 0 24 24" fill="none" xmlns="http://www.w3.org/2000/svg">
<circle cx="12" cy="12" r="12" fill="#4FCE5D"/>
<path d="M17.4001 11.8612C17.4001 14.7666 15.0265 17.1219 12.0978 17.1219C11.1684 17.1219 10.2954 16.8842 9.53543 16.4679L6.6001 17.4001L7.55694 14.5767C7.07447 13.7844 6.79661 12.8539 6.79661 11.8608C6.79696 8.95541 9.16988 6.6001 12.0985 6.6001C15.0268 6.6008 17.4001 8.95576 17.4001 11.8612ZM12.0975 7.43897C9.63968 7.43897 7.64041 9.42309 7.64041 11.8622C7.64041 12.83 7.95595 13.7259 8.48949 14.4549L7.93306 16.0971L9.64531 15.553C10.3497 16.015 11.1924 16.2841 12.0975 16.2841C14.5553 16.2841 16.5552 14.3003 16.5552 11.8612C16.5559 9.42309 14.5556 7.43897 12.0975 7.43897ZM14.7754 13.073C14.7423 13.0198 14.6556 12.9874 14.526 12.9226C14.3968 12.8578 13.7569 12.5461 13.6382 12.5039C13.5185 12.4606 13.4318 12.4387 13.3452 12.568C13.2596 12.6972 13.0103 12.9874 12.9339 13.074C12.8582 13.1603 12.7824 13.1712 12.6525 13.1075C12.5225 13.042 12.1035 12.9068 11.6069 12.4676C11.2206 12.1253 10.9596 11.7037 10.8842 11.5745C10.8078 11.4456 10.8765 11.3759 10.9409 11.3118C10.9991 11.2537 11.0709 11.1611 11.136 11.0853C11.2012 11.0103 11.2227 10.9571 11.266 10.8709C11.3086 10.7846 11.2871 10.7096 11.2551 10.6444C11.2227 10.5796 10.9631 9.94571 10.8543 9.68757C10.7462 9.42978 10.6381 9.4724 10.562 9.4724C10.4863 9.4724 10.3997 9.46183 10.313 9.46183C10.2264 9.46183 10.0855 9.49317 9.96684 9.62242C9.84816 9.75167 9.51219 10.0633 9.51219 10.6979C9.51219 11.3333 9.97741 11.9457 10.0426 12.0316C10.1081 12.1172 10.942 13.4621 12.263 13.9784C13.5847 14.4943 13.5847 14.3221 13.8228 14.3003C14.0615 14.2785 14.5919 13.9886 14.6997 13.6879C14.8081 13.3857 14.8081 13.1269 14.7754 13.073Z" fill="white"/>
</svg>
